<svg width="82" height="53" viewBox="0 0 82 53" fill="none" xmlns="http://www.w3.org/2000/svg">
<path d="M48.3586 12.6265L18.3987 13.8162C17.9504 13.8326 17.5018 13.9207 17.0791 14.0754C16.6563 14.2301 16.2678 14.4483 15.9361 14.7174L1.26616 26.5479C0.930357 26.8187 0.729184 27.1759 0.706896 27.541C0.684609 27.906 0.843032 28.2489 1.14732 28.4943L14.4402 39.2144C14.7406 39.4583 15.1043 39.6467 15.5102 39.7685C15.9161 39.8903 16.3561 39.9431 16.8045 39.9238L46.7645 38.7341C47.2128 38.7163 47.661 38.6275 48.0836 38.4727C48.5062 38.3179 48.8949 38.1002 49.2275 37.832C49.5601 37.5638 49.8301 37.2503 50.022 36.9095C50.2139 36.5687 50.3241 36.2072 50.3461 35.8457L51.6041 15.2438C51.6262 14.8822 51.5598 14.5278 51.4087 14.2006C51.2575 13.8734 51.0246 13.5799 50.7232 13.3368C50.4219 13.0938 50.0579 12.9059 49.6522 12.7841C49.2465 12.6622 48.8069 12.6086 48.3586 12.6265ZM17.4084 28.3339C17.0328 28.6368 16.5646 28.8516 16.0632 28.9509C15.5618 29.0503 15.0496 29.0299 14.5914 28.8922C14.1331 28.7545 13.7495 28.5058 13.489 28.1775C13.2284 27.8492 13.1027 27.456 13.1276 27.0477C13.1525 26.6394 13.327 26.2343 13.629 25.8837C13.931 25.533 14.347 25.2525 14.8243 25.0777C15.3016 24.9029 15.8188 24.8416 16.3105 24.9015C16.8022 24.9614 17.2463 25.1399 17.5867 25.4144C18.0431 25.7825 18.2807 26.2969 18.2473 26.8444C18.2138 27.3919 17.9121 27.9277 17.4084 28.3339Z" fill="#2B64DF"/>
<path d="M24.8299 25.7421L23.4239 25.8113L28.0359 14.536L29.4203 14.4678L32.9415 25.3426L31.5355 25.4119L28.6851 16.2519L28.5985 16.2562L24.8299 25.7421ZM25.5621 21.3903L31.2294 21.1112L31.1708 22.3009L25.5035 22.58L25.5621 21.3903ZM39.8955 21.6124L40.1373 16.7021L41.4135 16.6393L41.0045 24.9456L39.7282 25.0084L39.7975 23.6024L39.7109 23.6067C39.4955 24.0381 39.175 24.4117 38.7494 24.7276C38.3241 25.0398 37.7977 25.2114 37.1705 25.2423C36.6513 25.2678 36.1954 25.177 35.8028 24.9698C35.4104 24.7589 35.1102 24.4284 34.9022 23.9783C34.6944 23.5246 34.6079 22.9445 34.6427 22.2379L34.9026 16.9599L36.1788 16.8971L35.9231 22.0885C35.8933 22.6942 36.039 23.1689 36.3601 23.5127C36.6848 23.8564 37.1122 24.0152 37.6422 23.9891C37.9594 23.9735 38.2861 23.8765 38.6221 23.6981C38.9618 23.5195 39.2516 23.2571 39.4917 22.9108C39.7353 22.5643 39.8699 22.1315 39.8955 21.6124ZM46.7079 24.8374C45.9291 24.8757 45.2676 24.7249 44.7233 24.3848C44.179 24.0448 43.7714 23.5596 43.5003 22.9292C43.2293 22.2988 43.1141 21.569 43.155 20.7398C43.1965 19.8962 43.3882 19.1441 43.73 18.4835C44.0756 17.8191 44.5368 17.2911 45.1135 16.8995C45.694 16.504 46.3592 16.2879 47.1091 16.2509C47.6931 16.2222 48.2142 16.3044 48.6722 16.4977C49.1302 16.6909 49.4992 16.9748 49.7793 17.3494C50.0594 17.7241 50.2227 18.1692 50.2692 18.6848L48.993 18.7476C48.9143 18.3738 48.7145 18.0492 48.3936 17.7737C48.0764 17.4944 47.6367 17.3686 47.0743 17.3963C46.5768 17.4208 46.1342 17.5721 45.7464 17.8501C45.3625 18.1244 45.0544 18.501 44.8223 18.9799C44.5939 19.4551 44.4642 20.0064 44.4333 20.6337C44.4017 21.2754 44.4752 21.8292 44.6536 22.2952C44.8357 22.7609 45.1059 23.1162 45.4643 23.3611C45.8262 23.6059 46.2596 23.7158 46.7643 23.6909C47.096 23.6746 47.3999 23.6021 47.6759 23.4734C47.952 23.3447 48.1891 23.1676 48.3872 22.9421C48.5853 22.7165 48.7315 22.4504 48.8257 22.1437L50.102 22.0808C50.0057 22.5747 49.8055 23.0251 49.5014 23.4321C49.201 23.8353 48.8126 24.1637 48.3361 24.4173C47.8635 24.6672 47.3207 24.8072 46.7079 24.8374Z" fill="white"/>
<path d="M55.8697 15.9274L55.8165 17.009L51.5119 17.221L51.5652 16.1394L55.8697 15.9274ZM52.9178 14.0876L54.194 14.0247L53.8041 21.9417C53.7864 22.3022 53.8253 22.57 53.921 22.7451C54.0205 22.9164 54.1516 23.0287 54.3144 23.0818C54.481 23.1311 54.6581 23.1512 54.8455 23.1419C54.9861 23.135 55.1019 23.1221 55.1927 23.1033C55.2837 23.0808 55.3565 23.0628 55.4111 23.0494L55.6142 24.183C55.5261 24.2197 55.4038 24.2581 55.2471 24.2982C55.0903 24.3419 54.893 24.3696 54.655 24.3813C54.2945 24.399 53.945 24.3389 53.6066 24.201C53.2717 24.0628 52.9985 23.8407 52.787 23.5346C52.5791 23.2284 52.4871 22.8337 52.5109 22.3506L52.9178 14.0876ZM57.3805 24.1392L57.7895 15.8329L59.0657 15.7701L58.6567 24.0764L57.3805 24.1392ZM58.5066 14.4166C58.2578 14.4288 58.0475 14.3547 57.8756 14.1941C57.7073 14.0334 57.629 13.834 57.6407 13.5961C57.6524 13.3581 57.7508 13.1501 57.9358 12.9719C58.1244 12.7936 58.343 12.6983 58.5918 12.6861C58.8405 12.6738 59.0491 12.7481 59.2174 12.9088C59.3893 13.0694 59.4694 13.2687 59.4577 13.5066C59.446 13.7445 59.3458 13.9527 59.1572 14.131C58.9722 14.3091 58.7553 14.4043 58.5066 14.4166ZM64.3601 23.9681C63.6102 24.0051 62.9611 23.859 62.4126 23.53C61.8678 23.2007 61.4525 22.7231 61.1669 22.097C60.8848 21.4707 60.7649 20.7286 60.8072 19.8705C60.8498 19.0053 61.0438 18.2423 61.3892 17.5815C61.7383 16.9206 62.2028 16.3978 62.7828 16.0132C63.3663 15.6284 64.0331 15.4176 64.783 15.3806C65.5328 15.3437 66.1802 15.4899 66.725 15.8191C67.2734 16.1481 67.6886 16.6276 67.9705 17.2574C68.2559 17.8872 68.3774 18.6346 68.3348 19.4999C68.2925 20.3579 68.097 21.1156 67.7481 21.7729C67.4029 22.4301 66.9384 22.9511 66.3549 23.3358C65.7749 23.7204 65.11 23.9312 64.3601 23.9681ZM64.4165 22.8217C64.9862 22.7936 65.462 22.6246 65.8441 22.3144C66.2262 22.0043 66.5173 21.6069 66.7174 21.1224C66.9175 20.6378 67.0312 20.1179 67.0585 19.5627C67.0859 19.0075 67.023 18.4945 66.87 18.0237C66.717 17.5529 66.4638 17.1788 66.1107 16.9013C65.7575 16.6238 65.2961 16.499 64.7265 16.5271C64.1569 16.5551 63.6809 16.726 63.2987 17.0397C62.9164 17.3535 62.6251 17.7544 62.4248 18.2426C62.2246 18.7308 62.1108 19.2525 62.0834 19.8077C62.0561 20.3629 62.119 20.8741 62.2722 21.3413C62.4255 21.8084 62.6787 22.179 63.0321 22.4529C63.3854 22.7268 63.8469 22.8497 64.4165 22.8217ZM71.6028 18.4542L71.3568 23.451L70.0805 23.5138L70.4896 15.2075L71.7225 15.1468L71.6586 16.4447L71.7668 16.4393C71.9822 16.0079 72.2945 15.6545 72.7037 15.379C73.113 15.0999 73.6314 14.9449 74.2587 14.914C74.8211 14.8863 75.3075 14.9775 75.7179 15.1874C76.1286 15.3938 76.4396 15.7237 76.651 16.1772C76.8626 16.6272 76.951 17.2054 76.9162 17.912L76.6563 23.19L75.3801 23.2528L75.6358 18.0614C75.6679 17.4089 75.5235 16.9089 75.2025 16.5615C74.8817 16.2104 74.4257 16.0495 73.8345 16.0786C73.4271 16.0986 73.0586 16.2049 72.7291 16.3973C72.4031 16.5896 72.1399 16.8597 71.9393 17.2077C71.7388 17.5556 71.6266 17.9711 71.6028 18.4542Z" fill="#2B64DF"/>
<path d="M22.3757 37.3501L22.921 26.275L24.2621 26.209L24.0193 31.1408L29.9245 30.85L30.1674 25.9182L31.5085 25.8521L30.9631 36.9272L29.622 36.9932L29.8659 32.0398L23.9607 32.3305L23.7168 37.284L22.3757 37.3501ZM36.841 36.8104C36.0911 36.8473 35.4419 36.7013 34.8935 36.3722C34.3487 36.043 33.9334 35.5653 33.6478 34.9393C33.3657 34.313 33.2458 33.5708 33.2881 32.7128C33.3307 31.8476 33.5247 31.0846 33.8701 30.4238C34.2191 29.7628 34.6837 29.2401 35.2636 28.8555C35.8472 28.4707 36.5139 28.2598 37.2638 28.2229C38.0137 28.186 38.661 28.3321 39.2059 28.6613C39.7543 28.9904 40.1695 29.4698 40.4513 30.0997C40.7368 30.7294 40.8582 31.4769 40.8156 32.3421C40.7734 33.2001 40.5778 33.9578 40.229 34.6152C39.8837 35.2723 39.4193 35.7933 38.8357 36.1781C38.2558 36.5627 37.5908 36.7735 36.841 36.8104ZM36.8974 35.6639C37.467 35.6359 37.9429 35.4668 38.325 35.1567C38.7071 34.8466 38.9982 34.4492 39.1983 33.9646C39.3984 33.48 39.5121 32.9602 39.5394 32.405C39.5668 31.8498 39.5039 31.3368 39.3509 30.866C39.1978 30.3952 38.9447 30.0211 38.5915 29.7435C38.2384 29.466 37.777 29.3413 37.2074 29.3693C36.6378 29.3974 36.1618 29.5683 35.7795 29.882C35.3972 30.1957 35.106 30.5967 34.9057 31.0849C34.7054 31.5731 34.5916 32.0948 34.5643 32.65C34.537 33.2051 34.5999 33.7163 34.7531 34.1835C34.9063 34.6507 35.1596 35.0212 35.513 35.2952C35.8663 35.5691 36.3278 35.692 36.8974 35.6639ZM47.9633 32.7022L48.2051 27.792L49.4813 27.7292L49.0723 36.0355L47.7961 36.0983L47.8653 34.6923L47.7788 34.6966C47.5634 35.1279 47.2429 35.5016 46.8173 35.8174C46.3919 36.1297 45.8656 36.3013 45.2383 36.3321C44.7192 36.3577 44.2633 36.2669 43.8707 36.0596C43.4783 35.8488 43.1781 35.5183 42.9701 35.0682C42.7622 34.6145 42.6757 34.0343 42.7105 33.3277L42.9704 28.0498L44.2466 27.9869L43.991 33.1784C43.9612 33.784 44.1068 34.2588 44.428 34.6026C44.7527 34.9463 45.1801 35.105 45.71 35.0789C46.0273 35.0633 46.3539 34.9663 46.69 34.7879C47.0296 34.6094 47.3195 34.3469 47.5595 34.0007C47.8032 33.6542 47.9378 33.2214 47.9633 32.7022Z" fill="white"/>
<path d="M57.6109 29.1846L56.4484 29.5655C56.3857 29.378 56.2885 29.1976 56.1568 29.0242C56.0289 28.8471 55.8489 28.7049 55.6168 28.5977C55.3847 28.4904 55.083 28.4459 54.7117 28.4642C54.2033 28.4893 53.7739 28.6273 53.4235 28.8783C53.0769 29.1255 52.8948 29.4276 52.8772 29.7845C52.8616 30.1018 52.9646 30.3467 53.1863 30.5192C53.408 30.6917 53.7609 30.8271 54.2452 30.9256L55.4632 31.1677C56.197 31.3114 56.7368 31.5599 57.0827 31.9133C57.4287 32.2631 57.5874 32.7282 57.5588 33.3087C57.5354 33.7845 57.3775 34.2167 57.085 34.6051C56.7961 34.9934 56.403 35.3076 55.9057 35.5479C55.4083 35.7882 54.837 35.9242 54.1917 35.956C53.3445 35.9977 52.6523 35.8484 52.1152 35.508C51.5782 35.1676 51.2531 34.6477 51.1401 33.9484L52.3663 33.5859C52.4597 34.0273 52.6613 34.3518 52.9711 34.5595C53.2846 34.7671 53.7027 34.858 54.2254 34.8323C54.8203 34.803 55.2988 34.6535 55.6609 34.3839C56.0268 34.1106 56.2186 33.7954 56.2361 33.4385C56.2503 33.1501 56.1613 32.9135 55.969 32.7288C55.7769 32.5405 55.4741 32.4079 55.0607 32.3312L53.6923 32.0749C52.9405 31.9321 52.3954 31.6802 52.0572 31.3192C51.7227 30.9545 51.5696 30.4855 51.5978 29.9123C51.6209 29.4436 51.7729 29.0225 52.0538 28.6491C52.3383 28.2754 52.7146 27.9746 53.1826 27.7465C53.6541 27.5183 54.1819 27.3898 54.766 27.361C55.588 27.3206 56.2244 27.469 56.6753 27.8065C57.1298 28.1437 57.4417 28.6031 57.6109 29.1846ZM62.84 35.5301C62.0397 35.5695 61.358 35.4269 60.795 35.1022C60.2357 34.7737 59.815 34.2981 59.5327 33.6754C59.2543 33.0489 59.136 32.3103 59.1779 31.4595C59.2198 30.6087 59.4118 29.8512 59.7538 29.187C60.0995 28.519 60.5608 27.9892 61.1375 27.5975C61.718 27.2021 62.3832 26.986 63.1331 26.949C63.5657 26.9277 63.9894 26.9788 64.4041 27.1022C64.8188 27.2257 65.1912 27.4411 65.5213 27.7485C65.8516 28.0523 66.1065 28.4642 66.2859 28.984C66.4653 29.5038 66.5359 30.1513 66.4977 30.9264L66.4711 31.4672L60.0683 31.7825L60.1226 30.6793L65.2275 30.4279C65.2506 29.9593 65.1775 29.5457 65.0081 29.1872C64.8424 28.8285 64.5935 28.5512 64.2615 28.3554C63.933 28.1594 63.5381 28.0727 63.0767 28.0955C62.5683 28.1205 62.1223 28.2683 61.7385 28.539C61.3585 28.8058 61.0596 29.1442 60.8416 29.5542C60.6236 29.9641 60.5033 30.398 60.4808 30.8559L60.4446 31.5913C60.4137 32.2186 60.4956 32.7451 60.6905 33.1706C60.8891 33.5924 61.1775 33.9073 61.5556 34.1152C61.934 34.3196 62.3809 34.4091 62.8965 34.3837C63.2318 34.3672 63.5369 34.3054 63.8119 34.1983C64.0907 34.0875 64.3339 33.9317 64.5416 33.7308C64.7495 33.5264 64.9146 33.2773 65.037 32.9836L66.2529 33.269C66.1025 33.6935 65.8663 34.072 65.5442 34.4044C65.2223 34.7331 64.8317 34.9969 64.3724 35.1957C63.9132 35.391 63.4024 35.5024 62.84 35.5301Z" fill="#2B64DF"/>
</svg>
