<svg width="54" height="30" viewBox="0 0 54 30" fill="none" xmlns="http://www.w3.org/2000/svg">
<path d="M48.3586 1.62648L18.3987 2.81624C17.9504 2.8326 17.5018 2.9207 17.0791 3.0754C16.6563 3.2301 16.2678 3.44832 15.9361 3.71738L1.26616 15.5479C0.930357 15.8187 0.729184 16.1759 0.706896 16.541C0.684609 16.906 0.843032 17.2489 1.14732 17.4943L14.4402 28.2144C14.7406 28.4583 15.1043 28.6467 15.5102 28.7685C15.9161 28.8903 16.3561 28.9431 16.8045 28.9238L46.7645 27.7341C47.2128 27.7163 47.661 27.6275 48.0836 27.4727C48.5062 27.3179 48.8949 27.1002 49.2275 26.832C49.5601 26.5638 49.8301 26.2503 50.022 25.9095C50.2139 25.5687 50.3241 25.2072 50.3461 24.8457L51.6041 4.24376C51.6262 3.88224 51.5598 3.52776 51.4087 3.20056C51.2575 2.87336 51.0246 2.57986 50.7232 2.33682C50.4219 2.09377 50.0579 1.90594 49.6522 1.78406C49.2465 1.66218 48.8069 1.60863 48.3586 1.62648ZM17.4084 17.3339C17.0328 17.6368 16.5646 17.8516 16.0632 17.9509C15.5618 18.0503 15.0496 18.0299 14.5914 17.8922C14.1331 17.7545 13.7495 17.5058 13.489 17.1775C13.2284 16.8492 13.1027 16.456 13.1276 16.0477C13.1525 15.6394 13.327 15.2343 13.629 14.8837C13.931 14.533 14.347 14.2525 14.8243 14.0777C15.3016 13.9029 15.8188 13.8416 16.3105 13.9015C16.8022 13.9614 17.2463 14.1399 17.5867 14.4144C18.0431 14.7825 18.2807 15.2969 18.2473 15.8444C18.2138 16.3919 17.9121 16.9277 17.4084 17.3339Z" fill="#2B64DF"/>
</svg>
